<svg width="12" height="13" viewBox="0 0 12 13" fill="none" xmlns="http://www.w3.org/2000/svg">
<g clip-path="url(#clip0_206_34)">
<path d="M11 11.1655L10 10.1655M5.75 10.6655C6.37378 10.6655 6.99145 10.5427 7.56775 10.304C8.14404 10.0652 8.66768 9.71536 9.10876 9.27428C9.54984 8.83321 9.89972 8.30957 10.1384 7.73327C10.3771 7.15698 10.5 6.53931 10.5 5.91553C10.5 5.29175 10.3771 4.67408 10.1384 4.09778C9.89972 3.52148 9.54984 2.99785 9.10876 2.55677C8.66768 2.11569 8.14404 1.76581 7.56775 1.5271C6.99145 1.28839 6.37378 1.16553 5.75 1.16553C4.49022 1.16553 3.28204 1.66597 2.39124 2.55677C1.50044 3.44757 1 4.65575 1 5.91553C1 7.17531 1.50044 8.38349 2.39124 9.27428C3.28204 10.1651 4.49022 10.6655 5.75 10.6655V10.6655Z" stroke="white" stroke-width="1.5" stroke-linecap="round" stroke-linejoin="round"/>
</g>
<defs>
<clipPath id="clip0_206_34">
<rect width="12" height="12" fill="white" transform="translate(0 0.165527)"/>
</clipPath>
</defs>
</svg>
